<svg width='24' height='24' viewBox='0 0 24 24' xmlns='http://www.w3.org/2000/svg' xmlns:xlink='http://www.w3.org/1999/xlink'><rect width='24' height='24' stroke='none' fill='#000000' opacity='0'/>


<g transform="matrix(0.42 0 0 0.42 12 12)" >
<g style="" >
<g transform="matrix(1 0 0 1 -17.5 -9)" >
<path style="stroke: none; stroke-width: 1; stroke-dasharray: none; stroke-linecap: butt; stroke-dashoffset: 0; stroke-linejoin: miter; stroke-miterlimit: 4; fill: rgb(252,151,43); fill-rule: nonzero; opacity: 1;" transform=" translate(-6.5, -15)" d="M 6 12 C 4.5 12 4 12.25 4 12.25 L 5.875 14.875 L 3.03 14.02 L 3 14 C 3 14 3 17 5 18 L 10 18 L 10 13 C 10 13 8.029 12 6 12 z" stroke-linecap="round" />
</g>
<g transform="matrix(1 0 0 1 11.5 10.5)" >
<path style="stroke: none; stroke-width: 1; stroke-dasharray: none; stroke-linecap: butt; stroke-dashoffset: 0; stroke-linejoin: miter; stroke-miterlimit: 4; fill: rgb(48,63,159); fill-rule: nonzero; opacity: 1;" transform=" translate(-35.5, -34.5)" d="M 43.75 33.125 C 43.375 29.25 42.256 28.118000000000002 40.625 26.75 C 38.91 25.311 36.888 25.055 34 25.01 C 33.376 25 32.711 25 32 25 C 28 25 25 25 25 25 L 25 33.308 C 25.362 33.932 25.707 34.518 26 35 C 27.75 37.875 31.5 44 35 44 C 37 44 37.727 43.715 40.75 41.75 C 43.25 40.125 46 40 46 40 C 46 40 44.118 36.931 43.75 33.125 z" stroke-linecap="round" />
</g>
<g transform="matrix(1 0 0 1 1 0.5)" >
<path style="stroke: none; stroke-width: 1; stroke-dasharray: none; stroke-linecap: butt; stroke-dashoffset: 0; stroke-linejoin: miter; stroke-miterlimit: 4; fill: rgb(63,81,181); fill-rule: nonzero; opacity: 1;" transform=" translate(-25, -24.5)" d="M 46 40 C 46 40 42.625 35.625 36.625 31.625 C 32.356 28.779 28.975 26.259999999999998 27.435000000000002 24.335 C 26.935 23.71 26 21.917 26 21 C 26 18.079 24.854 15.432 22.997 13.462 C 22.987 12.334 23.004 11.746 23.875 10.875 C 24.875 9.875 25.875 10 26.625 10 C 27.625 10 28.135 9.384 29 8.375 C 29.75 7.5 31.013 6.976 31 6.5 C 30.994 6.267 30.631 6 30 6 C 27.5 6 25.515 6.966 22.625 8.25 C 18.564 10.055 15.632 10.027 15.096 10.004999999999999 C 15.064 10.005 15.032 10 15 10 C 8.925 10 4 14.925 4 21 C 4 23.359 4.749 25.539 6.013 27.33 L 6 27.326 C 6 27.326 7 28.721 7 31 C 7 34 7 39.25 7.875 42 C 8.115 42.753 8.625 43 8.875 43 C 9.375 43 9.625 41.875 9.75 40.5 C 9.886 39.006 11 38.625 11 37.875 C 11 37 10 36.75 10 34.5 C 10 33.313 10.317 32.175 10.986 31.233 C 12.23 31.722 13.582 32 15 32 L 15.125 32 C 15.675 32 16.204 32.171 16.672 32.459 C 19.001 33.888 22.402 35 26 35 C 34.125 35 41.125 37.875 46 40 z" stroke-linecap="round" />
</g>
<g transform="matrix(1 0 0 1 -10 -4)" >
<path style="stroke: none; stroke-width: 1; stroke-dasharray: none; stroke-linecap: butt; stroke-dashoffset: 0; stroke-linejoin: miter; stroke-miterlimit: 4; fill: rgb(255,213,79); fill-rule: nonzero; opacity: 1;" transform=" translate(-14, -20)" d="M 14 13 C 10.134006751184446 13 7 16.134006751184444 7 20 C 7 23.865993248815556 10.134006751184446 27 14 27 C 17.865993248815556 27 21 23.865993248815556 21 20 C 21 16.134006751184444 17.865993248815556 13 14 13 Z" stroke-linecap="round" />
</g>
<g transform="matrix(1 0 0 1 -10 -4)" >
<path style="stroke: none; stroke-width: 1; stroke-dasharray: none; stroke-linecap: butt; stroke-dashoffset: 0; stroke-linejoin: miter; stroke-miterlimit: 4; fill: rgb(198,134,50); fill-rule: nonzero; opacity: 1;" transform=" translate(-14, -20)" d="M 14 16 C 11.790861000676827 16 10 17.790861000676827 10 20 C 10 22.209138999323173 11.790861000676827 24 14 24 C 16.209138999323173 24 18 22.209138999323173 18 20 C 18 17.790861000676827 16.209138999323173 16 14 16 Z" stroke-linecap="round" />
</g>
<g transform="matrix(1 0 0 1 -10 -4)" >
<path style="stroke: none; stroke-width: 1; stroke-dasharray: none; stroke-linecap: butt; stroke-dashoffset: 0; stroke-linejoin: miter; stroke-miterlimit: 4; fill: rgb(55,71,79); fill-rule: nonzero; opacity: 1;" transform=" translate(-14, -20)" d="M 14 17 C 12.34314575050762 17 11 18.34314575050762 11 20 C 11 21.65685424949238 12.34314575050762 23 14 23 C 15.65685424949238 23 17 21.65685424949238 17 20 C 17 18.34314575050762 15.65685424949238 17 14 17 Z" stroke-linecap="round" />
</g>
<g transform="matrix(1 0 0 1 -16 -17.5)" >
<path style="stroke: none; stroke-width: 1; stroke-dasharray: none; stroke-linecap: butt; stroke-dashoffset: 0; stroke-linejoin: miter; stroke-miterlimit: 4; fill: rgb(90,174,246); fill-rule: nonzero; opacity: 1;" transform=" translate(-8, -6.5)" d="M 3 9 C 2.4477152501692068 9 2 9.447715250169207 2 10 C 2 10.552284749830793 2.4477152501692068 11 3 11 C 3.5522847498307932 11 4 10.552284749830793 4 10 C 4 9.447715250169207 3.5522847498307932 9 3 9 z M 6.5 3 C 5.67157287525381 3 5 3.6715728752538097 5 4.5 C 5 5.32842712474619 5.67157287525381 6 6.5 6 C 7.32842712474619 6 8 5.32842712474619 8 4.5 C 8 3.6715728752538097 7.32842712474619 3 6.5 3 z M 12.5 2 C 11.67157287525381 2 11 2.6715728752538097 11 3.5 C 11 4.32842712474619 11.67157287525381 5 12.5 5 C 13.32842712474619 5 14 4.32842712474619 14 3.5 C 14 2.6715728752538097 13.32842712474619 2 12.5 2 z M 7 8 C 6.447715250169207 8 6 8.447715250169207 6 9 C 6 9.552284749830793 6.447715250169207 10 7 10 C 7.552284749830793 10 8 9.552284749830793 8 9 C 8 8.447715250169207 7.552284749830793 8 7 8 z" stroke-linecap="round" />
</g>
<g transform="matrix(1 0 0 1 -8 -4)" >
<path style="stroke: none; stroke-width: 1; stroke-dasharray: none; stroke-linecap: butt; stroke-dashoffset: 0; stroke-linejoin: miter; stroke-miterlimit: 4; fill: rgb(238,238,238); fill-rule: nonzero; opacity: 1;" transform=" translate(-16, -20)" d="M 16 19 C 15.447715250169207 19 15 19.447715250169207 15 20 C 15 20.552284749830793 15.447715250169207 21 16 21 C 16.552284749830793 21 17 20.552284749830793 17 20 C 17 19.447715250169207 16.552284749830793 19 16 19 Z" stroke-linecap="round" />
</g>
<g transform="matrix(1 0 0 1 2.38 5.64)" >
<path style="stroke: none; stroke-width: 1; stroke-dasharray: none; stroke-linecap: butt; stroke-dashoffset: 0; stroke-linejoin: miter; stroke-miterlimit: 4; fill: rgb(48,63,159); fill-rule: nonzero; opacity: 1;" transform=" translate(-26.38, -29.64)" d="M 21.999 30 C 21.79 30 21.58 29.935 21.398999999999997 29.8 C 20.958 29.468 20.868999999999996 28.842000000000002 21.199999999999996 28.400000000000002 L 22.683999999999997 26.421000000000003 C 23.014999999999997 25.980000000000004 23.641 25.890000000000004 24.083999999999996 26.221000000000004 C 24.524999999999995 26.553000000000004 24.613999999999997 27.179000000000002 24.282999999999998 27.621000000000002 L 22.8 29.6 C 22.604 29.862 22.303 30 21.999 30 z M 25.999 32 C 25.79 32 25.58 31.935 25.4 31.8 C 24.958 31.469 24.868 30.842000000000002 25.2 30.400000000000002 L 25.951999999999998 29.398000000000003 C 26.282999999999998 28.956000000000003 26.909999999999997 28.866000000000003 27.351 29.198000000000004 C 27.793 29.529000000000003 27.883 30.156000000000002 27.551 30.598000000000003 L 26.8 31.6 C 26.604 31.862 26.303 32 25.999 32 z M 30.562 33.25 C 30.353 33.25 30.143 33.185 29.962 33.05 C 29.521 32.717999999999996 29.432 32.092 29.762999999999998 31.65 L 29.951999999999998 31.398 C 30.282999999999998 30.956 30.909 30.867 31.351999999999997 31.198 C 31.792999999999996 31.53 31.881999999999998 32.156 31.551 32.598 L 31.362 32.85 C 31.166 33.112 30.865 33.25 30.562 33.25 z" stroke-linecap="round" />
</g>
</g>
</g>
</svg>
